<?xml version="1.0" standalone="no"?>
<!DOCTYPE svg PUBLIC "-//W3C//DTD SVG 20010904//EN"
 "http://www.w3.org/TR/2001/REC-SVG-20010904/DTD/svg10.dtd">
<svg version="1.0" xmlns="http://www.w3.org/2000/svg"
 width="700.000000pt" height="700.000000pt" viewBox="0 0 700.000000 700.000000"
 preserveAspectRatio="xMidYMid meet">
<metadata>
Created by potrace 1.14, written by Peter Selinger 2001-2017
</metadata>
<g transform="translate(0.000000,700.000000) scale(0.100000,-0.100000)"
fill="#000000" stroke="none">
<path d="M3394 6761 c-12 -5 -31 -22 -43 -37 -20 -25 -21 -38 -21 -200 l0
-174 28 -30 c38 -43 86 -49 132 -18 l35 24 3 186 2 187 -27 31 c-30 32 -75 45
-109 31z"/>
<path d="M2110 6011 c-30 -10 -68 -25 -85 -33 -37 -20 -748 -716 -792 -776
-56 -77 -66 -197 -23 -282 24 -47 64 -90 189 -201 57 -51 156 -140 220 -198
389 -351 728 -655 876 -786 94 -82 292 -258 439 -390 360 -321 365 -325 411
-346 54 -25 138 -24 189 1 46 23 63 38 537 470 184 168 395 359 469 425 74 66
184 165 244 220 61 55 197 177 301 269 105 93 269 243 367 333 206 190 228
223 228 335 0 120 -6 129 -418 536 -334 330 -374 365 -441 400 l-75 37 -1290
2 c-1215 2 -1294 1 -1346 -16z m480 -282 c0 -18 -249 -573 -264 -588 -11 -10
-89 -14 -374 -19 -198 -3 -368 -2 -378 2 -15 6 40 65 286 311 l305 305 212 0
c151 0 213 -3 213 -11z m1438 -146 c155 -350 192 -434 192 -442 0 -5 -7 -12
-16 -15 -9 -3 -362 -6 -785 -6 -681 0 -769 2 -769 15 0 9 39 102 86 208 48
105 105 233 126 282 22 50 44 96 50 103 8 9 126 12 528 12 l517 0 71 -157z
m982 -145 c171 -166 310 -306 310 -311 0 -4 -173 -7 -385 -5 -330 3 -387 5
-395 18 -16 25 -260 579 -260 590 0 6 73 10 210 10 l211 0 309 -302z m-2735
-606 l50 -7 81 -155 c230 -441 343 -656 397 -760 67 -127 68 -127 -68 -5 -49
45 -175 157 -280 250 -104 93 -315 281 -469 419 -266 240 -277 251 -250 257
39 9 476 9 539 1z m1945 -1 c0 -6 -75 -155 -167 -333 -92 -178 -267 -519 -388
-758 -121 -239 -224 -434 -230 -434 -5 1 -87 154 -180 340 -94 187 -268 527
-388 756 -119 229 -217 422 -217 428 0 7 248 10 785 10 482 0 785 -4 785 -9z
m902 0 c26 -6 17 -16 -174 -186 -112 -99 -351 -315 -531 -480 -181 -165 -346
-314 -367 -332 -35 -31 -33 -24 65 165 114 221 361 697 407 785 l31 57 271 -1
c149 -1 283 -4 298 -8z"/>
<path d="M1179 4112 c-29 -26 -32 -34 -36 -103 -7 -132 -46 -172 -176 -184
-103 -9 -132 -32 -131 -101 1 -40 6 -52 33 -76 27 -24 40 -28 91 -28 71 0 115
-16 151 -56 23 -25 27 -40 31 -108 5 -75 7 -81 38 -109 28 -25 39 -28 73 -24
63 9 85 38 97 132 8 65 15 84 38 108 41 43 60 51 146 57 73 6 81 9 108 38 45
52 33 119 -27 150 -11 6 -53 14 -93 18 -122 11 -172 64 -172 177 0 66 -20 109
-57 126 -41 19 -81 13 -114 -17z"/>
<path d="M5563 4130 c-33 -13 -50 -56 -56 -141 -3 -42 -11 -86 -19 -98 -23
-38 -69 -59 -148 -66 -80 -8 -124 -24 -134 -50 -15 -39 -6 -85 22 -117 27 -29
35 -32 108 -37 126 -9 162 -44 174 -167 8 -83 30 -118 80 -129 34 -7 95 16
108 42 5 10 12 49 15 87 8 114 53 155 178 166 76 7 85 10 111 39 38 43 38 92
0 130 -24 24 -39 29 -107 36 -136 12 -171 48 -182 186 -5 72 -9 82 -35 104
-31 26 -74 31 -115 15z"/>
<path d="M2756 3032 l-25 -39 -133 -5 c-73 -3 -141 -9 -151 -13 -10 -4 -24
-20 -32 -36 -23 -44 -19 -85 13 -120 26 -29 34 -32 106 -37 64 -4 76 -7 74
-21 -4 -20 -60 -29 -181 -30 -100 -1 -138 -15 -162 -61 -25 -49 -19 -88 19
-126 32 -32 38 -34 104 -34 39 0 73 -4 77 -10 3 -5 -28 -73 -69 -152 l-74
-143 -143 -6 c-160 -6 -197 -17 -224 -69 -18 -35 -19 -86 -2 -119 23 -45 62
-65 143 -72 42 -4 79 -10 82 -14 3 -3 -45 -109 -108 -235 l-114 -228 -175 -4
c-151 -3 -180 -6 -203 -22 -65 -43 -86 -131 -48 -193 31 -52 55 -61 173 -69
59 -4 107 -8 107 -9 0 -2 -18 -42 -40 -90 -22 -49 -38 -91 -34 -94 9 -9 309
-14 372 -6 l54 7 44 94 43 94 1184 0 1184 0 46 -100 46 -100 188 1 c103 1 200
4 215 8 l26 6 -38 80 c-22 44 -39 85 -40 91 0 7 38 13 101 18 122 8 154 22
180 82 24 54 18 102 -19 146 -43 51 -75 58 -246 58 l-155 0 -19 28 c-11 15
-65 119 -122 231 -78 157 -98 206 -88 212 7 5 41 9 76 9 107 0 152 38 152 126
0 54 -21 92 -63 116 -13 8 -81 15 -166 18 l-144 5 -73 140 c-41 77 -74 146
-74 153 0 8 20 12 65 12 71 0 117 17 135 49 15 29 12 93 -6 119 -29 42 -65 52
-193 52 -109 0 -121 2 -131 19 -5 11 -10 22 -10 24 0 2 35 7 78 10 67 5 80 9
99 32 47 54 40 105 -20 149 -25 18 -45 21 -157 24 l-129 4 -20 34 c-11 19 -24
34 -28 34 -12 0 -177 -151 -181 -165 -2 -7 9 -38 23 -70 14 -32 25 -64 25 -71
0 -12 -85 -14 -515 -14 -579 0 -534 -7 -490 80 14 27 25 58 25 69 0 18 -64 83
-149 150 l-40 32 -25 -39z m1306 -539 c16 -19 128 -266 128 -283 0 -6 -274
-10 -755 -10 -415 0 -755 4 -755 9 0 8 115 275 126 293 3 4 283 8 623 8 576 0
619 -1 633 -17z m247 -575 c11 -12 25 -35 31 -52 5 -17 46 -114 90 -216 l80
-185 -1053 -3 c-578 -1 -1062 0 -1075 3 -21 5 -21 7 -8 38 8 17 46 106 86 197
39 91 81 182 93 203 l21 37 857 0 858 0 20 -22z"/>
</g>
</svg>
