<?xml version="1.0" standalone="no"?>
<!DOCTYPE svg PUBLIC "-//W3C//DTD SVG 20010904//EN"
 "http://www.w3.org/TR/2001/REC-SVG-20010904/DTD/svg10.dtd">
<svg version="1.0" xmlns="http://www.w3.org/2000/svg"
 width="499.000000pt" height="499.000000pt" viewBox="0 0 499.000000 499.000000"
 preserveAspectRatio="xMidYMid meet">
<metadata>
Created by potrace 1.14, written by Peter Selinger 2001-2017
</metadata>
<g transform="translate(0.000000,499.000000) scale(0.100000,-0.100000)"
fill="#000000" stroke="none">
<path d="M2456 4788 c-24 -22 -25 -27 -26 -153 -2 -171 -3 -162 20 -185 29
-29 84 -27 116 5 25 25 25 27 22 166 -3 140 -3 141 -31 165 -35 30 -69 31
-101 2z"/>
<path d="M1451 4209 c-64 -21 -70 -26 -370 -322 -172 -168 -316 -318 -328
-341 -16 -29 -22 -58 -23 -101 0 -101 -7 -92 380 -444 434 -394 1291 -1153
1319 -1168 36 -18 125 -16 163 3 17 9 153 127 301 263 262 239 504 456 887
799 102 91 228 204 280 252 52 48 114 103 137 124 88 78 110 189 57 286 -40
73 -574 594 -651 635 l-57 30 -1015 2 c-1000 2 -1017 2 -1080 -18z m385 -241
c-17 -40 -77 -173 -148 -333 l-54 -120 -310 -3 -309 -2 245 245 246 245 172 0
172 0 -14 -32z m1130 -68 c123 -276 164 -372 164 -381 0 -5 -243 -9 -625 -9
-344 0 -625 2 -625 4 0 2 13 32 29 67 122 272 165 368 178 392 l14 27 411 -2
412 -3 42 -95z m784 -137 c135 -131 247 -241 248 -245 2 -4 -135 -8 -305 -8
l-308 0 -104 233 c-57 127 -106 238 -108 245 -4 9 33 12 163 12 l169 0 245
-237z m-2137 -482 c21 -8 42 -41 103 -163 42 -84 109 -214 149 -288 164 -307
196 -372 182 -364 -8 5 -91 77 -183 159 -304 271 -678 607 -707 634 l-28 27
229 3 c138 1 238 -2 255 -8z m1517 1 c0 -5 -64 -134 -143 -288 -79 -153 -217
-424 -308 -601 -90 -178 -167 -323 -171 -323 -4 0 -82 147 -172 328 -91 180
-202 397 -246 482 -101 193 -204 392 -208 402 -2 5 278 8 622 8 344 0 626 -4
626 -8z m724 -2 c10 -3 -6 -23 -48 -60 -220 -194 -577 -516 -726 -655 -41 -39
-86 -79 -99 -90 -26 -21 -14 1 292 585 30 58 69 134 86 168 l32 64 224 -3
c124 -2 231 -6 239 -9z"/>
<path d="M725 2716 c-14 -10 -21 -32 -26 -91 -11 -108 -32 -130 -140 -141 -95
-9 -129 -50 -98 -117 15 -33 49 -47 114 -47 47 0 58 -4 89 -34 33 -30 36 -38
36 -89 0 -70 6 -84 41 -103 60 -31 119 15 119 93 0 24 7 57 15 73 24 46 63 62
173 69 58 3 84 87 39 129 -17 16 -36 22 -70 22 -104 0 -149 41 -155 138 -5 82
-27 112 -82 112 -20 0 -45 -6 -55 -14z"/>
<path d="M4172 2707 c-17 -18 -22 -36 -22 -76 0 -104 -50 -151 -158 -151 -82
0 -118 -64 -71 -124 17 -21 29 -26 67 -27 108 -1 162 -49 162 -144 0 -63 27
-95 81 -95 51 0 79 33 79 94 0 91 39 131 137 138 76 5 113 33 113 84 0 49 -32
74 -92 74 -61 0 -108 19 -136 55 -17 22 -22 41 -22 90 0 51 -4 65 -23 83 -32
30 -87 29 -115 -1z"/>
<path d="M1971 1855 l-20 -35 -104 0 c-90 0 -108 -3 -131 -21 -35 -28 -36 -80
-1 -114 20 -21 34 -25 85 -25 33 0 60 -3 60 -7 -1 -25 -23 -31 -127 -35 -127
-3 -149 -14 -159 -79 -5 -28 -1 -41 19 -64 21 -25 33 -29 91 -33 37 -2 66 -7
64 -11 -2 -3 -29 -57 -61 -118 l-57 -113 -105 0 c-155 0 -195 -22 -195 -107 0
-69 49 -103 146 -103 l56 0 -99 -190 -98 -190 -137 0 c-132 0 -137 -1 -167
-26 -42 -35 -55 -87 -34 -131 23 -48 58 -63 152 -63 l80 0 -35 -76 c-19 -41
-34 -77 -34 -80 0 -2 77 -3 171 -2 l172 3 33 75 33 75 938 3 939 2 33 -80 32
-80 175 0 174 0 -35 70 c-19 38 -35 74 -35 80 0 6 33 10 83 10 92 0 116 11
143 62 21 41 11 87 -27 124 -30 29 -32 29 -172 34 l-142 5 -92 180 c-51 99
-92 183 -93 188 0 4 24 7 53 7 64 0 117 25 136 64 12 26 12 36 0 70 -21 61
-58 76 -189 76 l-105 0 -58 115 c-31 63 -57 119 -57 123 0 4 27 7 61 7 54 0
63 3 85 28 31 36 31 78 0 114 -23 27 -29 28 -138 33 -97 4 -113 7 -116 23 -3
14 5 17 51 17 73 0 107 26 107 80 0 30 -6 43 -26 59 -23 18 -41 21 -130 21
l-103 0 -16 30 c-9 17 -18 30 -22 30 -3 0 -39 -30 -79 -66 l-73 -65 24 -56
c14 -30 25 -59 25 -64 0 -5 -44 -9 -98 -9 -92 0 -102 -2 -158 -32 -55 -31 -66
-33 -155 -33 -88 0 -101 2 -159 33 -58 30 -70 32 -162 32 l-98 0 16 38 c39 90
39 90 19 113 -11 12 -45 43 -76 70 l-57 49 -21 -35z m1067 -485 c19 -41 42
-96 53 -122 l19 -48 -600 0 c-330 0 -600 2 -600 5 0 8 93 219 101 230 5 6 183
10 500 10 l493 0 34 -75z m243 -569 c43 -101 79 -186 79 -188 0 -1 -382 -3
-850 -3 -467 0 -850 3 -850 8 0 6 68 166 141 330 l18 42 691 -2 691 -3 80
-184z"/>
</g>
</svg>
