<?xml version="1.0" standalone="no"?>
<!DOCTYPE svg PUBLIC "-//W3C//DTD SVG 20010904//EN"
 "http://www.w3.org/TR/2001/REC-SVG-20010904/DTD/svg10.dtd">
<svg version="1.0" xmlns="http://www.w3.org/2000/svg"
 width="700.000000pt" height="700.000000pt" viewBox="0 0 700.000000 700.000000"
 preserveAspectRatio="xMidYMid meet">
<metadata>
Created by potrace 1.14, written by Peter Selinger 2001-2017
</metadata>
<g transform="translate(0.000000,700.000000) scale(0.100000,-0.100000)"
fill="#000000" stroke="none">
<path d="M3124 6751 c-54 -33 -55 -39 -58 -213 -3 -171 1 -194 42 -232 43 -38
144 -8 154 46 3 19 3 165 -1 310 -2 73 -81 123 -137 89z"/>
<path d="M1957 6024 c-1 -1 -24 -4 -52 -7 -123 -14 -140 -24 -322 -203 -689
-677 -663 -646 -659 -767 4 -99 5 -101 36 -149 24 -36 207 -208 393 -371 12
-10 46 -41 77 -70 31 -29 98 -90 150 -137 51 -47 98 -89 104 -95 6 -5 49 -44
96 -85 97 -86 147 -130 240 -215 106 -96 219 -196 305 -271 44 -37 98 -84 119
-104 21 -19 44 -40 50 -45 6 -6 74 -66 151 -134 131 -117 249 -222 334 -299
127 -116 253 -118 377 -4 22 20 74 67 115 104 41 36 92 84 115 105 46 43 87
80 229 208 55 50 127 115 159 145 81 75 81 75 182 165 49 44 110 100 136 124
26 24 61 55 79 70 18 14 44 37 59 51 138 127 220 201 254 230 22 19 47 42 56
50 8 8 74 66 145 129 72 63 140 123 151 135 12 12 61 57 110 101 230 207 264
254 264 368 0 109 -23 142 -254 371 -541 535 -538 532 -611 567 l-70 33 -1258
1 c-692 1 -1259 0 -1260 -1z m369 -287 c4 -4 -41 -116 -100 -250 -152 -341
-154 -345 -174 -356 -16 -8 -230 -13 -577 -13 -185 1 -185 1 -185 11 0 5 138
146 306 313 l306 304 208 0 c115 -1 212 -5 216 -9z m1396 -57 c27 -57 122
-270 210 -474 20 -46 26 -72 20 -78 -9 -9 -867 -14 -1464 -9 -127 1 -125 -4
-72 115 20 44 45 101 56 126 11 25 37 82 59 127 21 45 50 110 65 145 14 35 32
74 39 88 l13 26 522 -1 521 0 31 -65z m802 -23 c50 -49 189 -184 309 -300 119
-116 217 -216 217 -223 0 -6 -6 -14 -12 -16 -7 -2 -116 -3 -243 -2 -126 1
-294 3 -372 3 l-143 1 -26 53 c-24 47 -122 266 -210 470 -19 43 -34 84 -34 91
0 9 52 12 211 12 l211 0 92 -89z m-2621 -818 l147 -1 18 -26 c11 -15 78 -142
150 -283 72 -141 140 -272 151 -291 10 -20 50 -94 87 -164 37 -71 81 -156 99
-189 17 -33 34 -68 38 -78 11 -30 7 -26 -253 208 -31 28 -91 82 -135 120 -121
107 -269 239 -275 245 -3 3 -48 43 -100 90 -52 47 -100 90 -106 95 -6 6 -49
44 -95 85 -46 41 -110 100 -144 132 l-60 56 154 1 c85 1 157 4 159 6 3 2 8 3
12 0 4 -2 73 -5 153 -6z m2053 -3 c3 -9 -3 -30 -14 -48 -11 -18 -68 -127 -127
-243 -59 -115 -138 -268 -175 -340 -38 -71 -156 -303 -263 -515 -111 -220
-201 -385 -209 -385 -7 0 -83 140 -176 325 -90 179 -197 388 -237 465 -40 77
-105 203 -145 280 -40 77 -108 209 -152 293 -44 84 -77 159 -75 166 4 11 157
13 786 15 687 1 782 0 787 -13z m932 -6 c-2 -5 -30 -32 -63 -61 -33 -29 -98
-87 -145 -129 -47 -43 -152 -138 -235 -211 -82 -74 -160 -143 -171 -154 -94
-88 -131 -122 -219 -200 -55 -49 -125 -112 -155 -141 -109 -102 -154 -143
-157 -141 -3 3 94 195 182 362 59 112 132 252 255 490 46 88 88 168 94 178 10
16 34 17 314 17 169 -1 302 -5 300 -10z"/>
<path d="M941 4128 c-43 -23 -59 -58 -64 -139 -4 -81 -19 -114 -67 -142 -23
-14 -45 -18 -160 -33 -64 -8 -98 -74 -69 -137 16 -35 43 -47 119 -52 79 -5
116 -21 154 -65 21 -26 26 -42 26 -89 0 -79 14 -113 55 -135 65 -35 129 4 140
86 12 98 16 111 35 139 23 32 99 71 132 69 71 -6 100 1 129 29 31 31 36 64 18
104 -15 33 -56 53 -114 56 -75 3 -118 18 -147 48 -34 36 -44 65 -47 131 -1 30
-6 63 -10 75 -20 51 -85 79 -130 55z"/>
<path d="M5311 4131 c-40 -11 -59 -49 -65 -133 -3 -42 -11 -87 -16 -100 -20
-42 -74 -70 -148 -75 -95 -7 -127 -23 -142 -69 -11 -32 -10 -42 5 -70 22 -41
45 -52 129 -58 73 -6 125 -30 152 -71 13 -20 20 -62 23 -137 1 -14 13 -40 27
-57 30 -36 75 -41 124 -16 32 17 37 30 44 118 3 33 12 69 20 80 46 66 64 75
164 82 75 5 109 24 129 72 10 25 9 36 -5 64 -22 43 -49 55 -140 62 -59 5 -80
11 -108 32 -48 37 -60 72 -63 197 -2 55 -68 95 -130 79z"/>
<path d="M2490 3025 c-12 -19 -27 -36 -33 -37 -12 -1 -150 -6 -225 -7 -75 -2
-114 -72 -81 -145 15 -33 52 -47 130 -49 62 -2 66 -4 61 -37 -3 -13 -47 -18
-180 -23 l-113 -5 -29 -33 c-41 -45 -41 -96 -1 -141 27 -30 34 -32 111 -38
l83 -5 -79 -155 -79 -154 -144 -4 c-101 -2 -153 -8 -173 -18 -54 -28 -78 -118
-44 -168 28 -43 62 -59 139 -64 40 -2 76 -8 81 -13 6 -5 -37 -101 -107 -241
l-117 -233 -142 0 c-220 1 -252 -9 -288 -89 -29 -62 -10 -123 51 -168 19 -14
45 -18 120 -19 53 -1 101 -4 107 -8 7 -4 0 -31 -22 -76 -18 -39 -36 -80 -40
-92 -8 -26 -20 -25 184 -25 66 0 145 1 176 1 l55 1 46 99 45 98 1177 0 c647 0
1181 -2 1188 -4 6 -3 28 -44 48 -91 21 -48 41 -91 46 -97 9 -9 401 -11 417 -1
5 3 -9 41 -31 86 -21 44 -37 87 -34 94 4 10 31 14 104 15 83 2 103 5 130 24
83 57 72 186 -20 234 -25 12 -65 16 -193 17 l-162 1 -25 40 c-53 86 -219 427
-211 435 5 5 44 11 86 13 116 8 161 49 151 137 -11 90 -54 112 -232 115 -114
3 -137 6 -148 21 -19 26 -143 271 -143 283 0 7 25 11 63 11 81 0 128 23 143
70 18 56 -15 126 -66 139 -17 4 -138 10 -216 11 -45 0 -52 3 -57 22 -4 12 -4
24 -2 27 3 2 35 6 73 8 79 5 106 20 122 67 14 42 0 78 -42 109 -24 18 -43 20
-153 20 l-127 0 -25 39 c-28 45 -18 49 -113 -39 -25 -23 -57 -52 -72 -65 l-27
-23 24 -52 c14 -29 27 -64 31 -78 6 -24 5 -25 -47 -26 -63 -1 -933 -1 -966 0
-30 1 -29 20 2 81 14 27 25 58 25 69 0 13 -32 48 -87 96 -48 41 -91 75 -95 75
-3 0 -16 -16 -28 -35z m1282 -514 c10 -1 25 -12 34 -26 27 -41 125 -277 118
-284 -8 -9 -1492 -8 -1506 0 -8 5 8 53 53 156 l64 148 270 5 c224 4 906 5 967
1z m269 -578 c9 -9 147 -323 181 -411 11 -29 17 -56 13 -60 -8 -8 -1862 -10
-2030 -2 -127 6 -123 -1 -71 113 18 39 50 113 71 162 52 123 92 202 106 207
23 8 1722 -1 1730 -9z"/>
</g>
</svg>
