 <svg  version="1.0" xmlns="http://www.w3.org/2000/svg"  width="1497.000000pt" height="1497.000000pt" viewBox="0 0 1383.000000 1497.000000"  preserveAspectRatio="xMidYMid meet">  <g transform="translate(0.000000,1497.000000) scale(0.100000,-0.100000)" fill="#6f777d" stroke="none"> <path d="M6715 14458 c-51 -14 -118 -67 -140 -113 -15 -32 -17 -80 -20 -381 l-2 -344 23 -49 c42 -87 136 -141 220 -128 59 10 124 47 155 90 l29 40 0 351 c0 199 -4 366 -10 385 -31 110 -146 177 -255 149z"/> <path d="M4065 12879 c-22 -5 -56 -11 -75 -15 -64 -10 -201 -67 -260 -107 -63 -43 -84 -63 -424 -402 -621 -617 -994 -983 -1079 -1060 -125 -112 -193 -207 -238 -335 -27 -78 -27 -272 1 -360 39 -121 133 -236 335 -409 61 -52 115 -99 120 -105 18 -20 304 -278 403 -365 54 -46 135 -120 182 -165 47 -44 121 -112 165 -151 44 -38 114 -101 155 -140 42 -38 94 -86 115 -105 183 -161 278 -246 314 -280 14 -14 64 -59 111 -100 47 -41 97 -85 111 -99 14 -15 57 -53 94 -86 112 -97 165 -145 250 -225 44 -41 107 -97 140 -123 33 -27 92 -79 130 -116 39 -37 99 -91 135 -120 36 -30 105 -90 154 -135 49 -44 102 -90 117 -101 24 -19 112 -96 348 -310 37 -33 102 -92 146 -131 44 -39 147 -131 229 -204 82 -73 160 -142 174 -154 52 -43 218 -191 243 -215 37 -36 180 -166 270 -244 44 -39 106 -81 145 -99 62 -28 81 -32 181 -36 112 -4 183 10 256 51 55 31 266 213 477 412 36 34 88 82 115 106 28 24 52 46 55 49 36 36 160 148 215 195 38 33 113 101 165 151 52 50 108 101 125 115 16 13 61 53 100 89 39 36 120 110 180 165 60 55 139 127 175 160 36 34 85 78 110 100 44 38 211 189 235 212 7 6 34 30 61 53 27 23 78 70 114 104 83 79 161 149 229 206 102 85 156 133 286 254 191 178 233 216 310 282 59 50 498 443 617 552 20 18 51 44 68 57 18 13 85 73 149 133 64 60 139 129 166 154 28 24 75 69 105 99 69 68 131 123 195 173 138 108 239 242 288 381 27 78 28 275 2 339 -57 141 -127 238 -275 381 -51 50 -217 212 -369 361 -152 148 -334 326 -405 395 -71 68 -235 230 -365 360 -130 130 -256 250 -281 266 -61 41 -227 119 -270 127 -19 3 -55 10 -80 15 -58 13 -5389 12 -5445 0z m919 -619 c-1 -22 -62 -167 -151 -360 -14 -30 -40 -89 -58 -131 -19 -43 -54 -119 -78 -170 -25 -52 -64 -139 -87 -193 -23 -54 -45 -106 -50 -115 -5 -9 -18 -41 -30 -71 -41 -101 -109 -236 -127 -252 -16 -14 -111 -16 -824 -21 -863 -7 -846 -8 -821 40 9 17 1204 1202 1282 1271 l35 32 455 -3 455 -2 -1 -25z m2927 -7 c10 -18 36 -74 58 -125 22 -51 62 -140 89 -198 27 -58 60 -130 72 -160 13 -30 36 -83 51 -118 16 -34 29 -65 29 -68 0 -3 7 -22 16 -42 8 -21 21 -50 28 -67 7 -16 27 -59 44 -95 64 -134 122 -261 122 -267 0 -3 12 -30 26 -60 14 -30 24 -64 22 -76 -3 -20 -11 -23 -78 -28 -136 -11 -3284 -8 -3297 3 -25 20 -14 54 67 219 4 8 40 92 80 185 40 93 88 203 107 244 53 113 123 261 140 295 8 17 32 73 53 126 45 114 87 204 113 242 l18 27 1111 -2 1111 -3 18 -32z m1824 -215 c437 -429 478 -469 636 -618 85 -80 221 -210 302 -290 158 -155 167 -173 102 -186 -40 -7 -1609 1 -1621 9 -5 3 -16 20 -25 39 -82 169 -167 354 -213 463 -10 22 -24 54 -31 70 -7 17 -23 55 -35 85 -12 30 -33 78 -45 105 -13 28 -33 73 -45 100 -21 45 -49 107 -115 250 -13 28 -31 74 -40 103 -10 29 -21 55 -26 58 -5 3 -9 18 -9 35 l0 29 454 0 454 0 257 -252z m-1288 -1674 c33 -9 35 -31 9 -77 -38 -64 -105 -192 -217 -412 -55 -110 -124 -243 -151 -295 -28 -52 -101 -194 -163 -315 -62 -121 -135 -263 -163 -315 -29 -52 -77 -144 -108 -205 -30 -60 -59 -117 -64 -125 -4 -8 -31 -60 -58 -115 -28 -55 -69 -136 -91 -180 -22 -44 -72 -143 -110 -220 -38 -77 -130 -259 -204 -405 -74 -146 -176 -347 -227 -447 -51 -100 -98 -187 -106 -193 -7 -7 -19 -8 -28 -3 -18 10 -64 94 -194 358 -28 55 -66 129 -86 165 -20 36 -39 72 -42 80 -41 92 -180 377 -227 465 -18 33 -57 112 -87 175 -30 63 -77 155 -104 205 -84 154 -116 215 -203 385 -46 91 -100 194 -120 230 -19 36 -94 180 -165 320 -71 140 -133 259 -138 265 -4 5 -64 120 -132 255 -69 135 -139 271 -156 303 -37 66 -39 82 -14 96 18 11 3308 16 3349 5z m-4045 -32 c9 -9 34 -51 56 -92 64 -121 278 -541 374 -730 48 -96 103 -202 121 -235 58 -104 221 -414 312 -590 48 -93 95 -183 105 -200 50 -86 190 -359 190 -370 0 -21 -79 40 -220 169 -31 28 -114 103 -185 166 -71 63 -161 144 -200 180 -39 36 -199 178 -355 315 -268 236 -349 308 -480 429 -30 28 -91 83 -135 121 -99 87 -371 331 -405 363 -14 14 -79 72 -145 131 -116 103 -216 194 -322 294 -29 27 -53 53 -53 58 0 10 478 16 985 11 304 -3 342 -5 357 -20z m6046 13 c22 -8 12 -29 -26 -57 -20 -15 -73 -59 -117 -99 -77 -69 -110 -99 -240 -219 -33 -30 -94 -85 -135 -121 -279 -245 -697 -620 -894 -803 -186 -173 -234 -216 -336 -307 -203 -179 -414 -373 -535 -491 -101 -98 -165 -151 -173 -143 -2 2 12 31 32 63 20 33 36 63 36 67 0 8 47 102 120 240 29 55 92 177 140 270 117 229 201 388 210 400 5 6 60 111 123 235 63 124 129 252 147 285 18 33 96 183 172 334 77 150 150 291 164 312 l24 39 233 2 c304 4 1038 -1 1055 -7z"/> <path d="M2021 8839 c-18 -6 -54 -31 -80 -57 -44 -44 -48 -52 -54 -111 -4 -35 -7 -104 -7 -154 0 -115 -20 -175 -80 -237 -25 -26 -69 -59 -99 -73 -46 -24 -68 -28 -184 -33 -143 -6 -195 -20 -240 -62 -43 -41 -57 -75 -57 -142 0 -80 34 -149 92 -187 38 -26 49 -28 159 -29 64 -1 142 -8 171 -14 74 -17 153 -74 201 -144 l39 -57 0 -132 c0 -181 24 -232 133 -283 61 -29 71 -29 142 -4 114 40 140 84 151 263 11 156 24 191 100 269 32 33 68 57 118 78 68 28 80 30 196 29 118 -2 126 0 166 25 123 78 146 220 50 313 -61 59 -101 71 -253 76 -117 3 -135 7 -183 31 -143 73 -191 161 -192 346 0 155 -6 175 -60 232 -62 64 -137 83 -229 57z"/> <path d="M11378 8841 c-39 -8 -85 -34 -106 -60 -39 -49 -46 -77 -53 -231 -6 -126 -11 -163 -28 -200 -26 -56 -36 -68 -86 -105 -78 -59 -109 -68 -265 -74 -165 -7 -203 -20 -254 -84 -39 -49 -49 -141 -20 -196 28 -55 49 -80 91 -108 35 -24 46 -26 173 -27 163 -3 207 -16 286 -89 84 -77 97 -108 102 -257 4 -146 19 -196 71 -243 77 -70 195 -71 284 -3 54 41 66 77 66 199 1 154 17 201 98 288 72 77 111 90 290 100 142 7 159 10 193 33 110 73 139 204 66 299 -53 68 -89 81 -256 88 -117 5 -154 10 -191 27 -67 31 -131 92 -163 156 -26 52 -29 67 -35 213 -6 154 -7 159 -35 195 -15 21 -42 46 -60 57 -36 22 -115 32 -168 22z"/> <path d="M5367 6543 c-2 -5 -19 -35 -37 -68 -55 -102 -25 -93 -344 -97 -314 -3 -317 -4 -377 -78 -54 -67 -50 -202 9 -268 53 -59 99 -72 260 -72 120 0 144 -3 149 -16 5 -15 -22 -77 -42 -94 -5 -4 -131 -11 -280 -14 -162 -4 -282 -11 -300 -18 -91 -35 -155 -127 -155 -224 0 -61 16 -98 65 -153 52 -58 98 -71 253 -71 75 0 143 -4 151 -9 11 -7 -5 -47 -84 -203 -156 -309 -232 -449 -249 -460 -6 -4 -137 -8 -291 -8 -306 0 -328 -4 -411 -61 -65 -44 -96 -113 -96 -211 0 -65 4 -83 27 -122 30 -52 69 -88 129 -118 35 -18 66 -22 200 -27 126 -5 161 -9 168 -21 7 -11 -27 -87 -125 -280 -73 -146 -167 -330 -207 -410 -126 -252 -132 -264 -152 -297 l-20 -33 -353 0 c-380 0 -368 1 -460 -54 -44 -27 -100 -103 -120 -165 -46 -142 34 -308 173 -355 35 -12 91 -16 241 -16 108 0 202 -4 210 -9 16 -10 12 -25 -42 -141 -16 -36 -43 -94 -59 -130 -16 -36 -36 -77 -44 -92 -33 -61 -56 -58 419 -58 237 0 442 3 455 6 24 7 37 30 122 229 12 28 25 59 30 70 29 71 53 114 66 119 9 3 1146 6 2528 6 1995 0 2515 -3 2528 -13 8 -6 22 -25 30 -42 8 -16 22 -45 31 -63 9 -19 17 -37 17 -42 0 -4 20 -51 45 -104 25 -53 45 -100 45 -105 0 -5 9 -20 21 -35 l20 -26 444 0 c293 0 446 3 450 10 7 11 -20 72 -65 150 -14 25 -45 89 -69 143 -34 78 -40 101 -30 113 9 11 48 14 197 14 240 0 279 8 347 75 35 34 58 68 73 108 26 70 28 111 6 189 -14 48 -28 69 -81 123 -35 36 -70 65 -77 65 -8 0 -27 7 -42 15 -24 12 -87 15 -371 15 l-342 0 -25 33 c-33 43 -98 165 -197 367 -44 91 -84 172 -88 181 -24 43 -157 300 -177 341 -58 116 -54 119 143 122 135 3 166 6 194 22 118 66 153 121 153 239 -1 96 -22 144 -90 204 -77 68 -113 75 -409 78 -143 2 -270 3 -283 3 -18 0 -29 12 -48 53 -14 28 -41 81 -61 117 -87 161 -233 455 -233 471 0 30 20 34 136 30 174 -5 251 26 303 124 29 55 29 154 0 201 -26 43 -107 114 -128 114 -10 0 -21 4 -27 10 -6 6 -118 11 -273 12 l-264 3 -18 25 c-10 14 -20 41 -21 60 l-3 35 150 5 c168 6 192 13 243 77 43 55 60 130 41 185 -19 58 -64 106 -124 134 -48 23 -58 24 -317 24 l-267 0 -26 54 c-28 58 -61 106 -75 106 -7 0 -164 -138 -359 -317 -39 -36 -41 -24 34 -188 67 -146 69 -153 55 -170 -11 -13 -144 -15 -1119 -13 l-1106 3 -3 23 c-2 13 4 40 13 60 26 58 76 164 91 194 22 42 17 79 -13 106 -16 13 -46 40 -68 61 -121 112 -291 251 -308 251 -3 0 -8 -3 -10 -7z m2732 -1176 c24 -12 59 -70 100 -167 26 -61 60 -139 96 -215 12 -27 33 -75 45 -105 13 -30 31 -73 41 -96 32 -68 27 -80 -33 -88 -68 -8 -3145 -8 -3175 0 -24 7 -32 41 -14 59 5 6 19 35 31 65 12 30 28 69 35 85 8 17 21 48 30 70 9 22 22 54 30 70 7 17 18 41 23 55 6 14 27 60 46 103 20 42 36 80 36 82 0 3 11 23 25 45 l25 40 1183 3 c650 1 1243 3 1317 4 92 2 143 -1 159 -10z m534 -1221 c15 -7 87 -143 87 -164 0 -9 97 -236 139 -327 16 -33 47 -105 70 -160 23 -55 53 -124 67 -153 13 -29 24 -57 24 -62 0 -6 14 -39 30 -74 17 -35 28 -71 24 -80 -6 -15 -191 -16 -2296 -14 -2060 3 -2292 5 -2301 19 -8 14 13 75 53 150 4 9 27 61 50 115 24 54 52 122 65 149 12 28 37 86 55 130 18 44 46 108 61 143 16 34 29 64 29 67 0 16 114 239 131 256 20 20 36 20 1857 17 1010 -2 1845 -7 1855 -12z"/> </g> </svg> 