<?xml version="1.0" standalone="no"?>
<!DOCTYPE svg PUBLIC "-//W3C//DTD SVG 20010904//EN"
 "http://www.w3.org/TR/2001/REC-SVG-20010904/DTD/svg10.dtd">
<svg version="1.0" xmlns="http://www.w3.org/2000/svg"
 width="499.000000pt" height="499.000000pt" viewBox="0 0 499.000000 499.000000"
 preserveAspectRatio="xMidYMid meet">
<metadata>
Created by potrace 1.10, written by Peter Selinger 2001-2011
</metadata>
<g transform="translate(0.000000,499.000000) scale(0.100000,-0.100000)"
fill="#6f777d" stroke="none">
<path d="M2216 4808 c-25 -22 -26 -27 -27 -153 -1 -128 -1 -129 25 -152 15
-13 34 -23 42 -23 19 0 57 19 66 34 4 6 8 70 8 143 0 130 0 132 -26 152 -34
27 -57 26 -88 -1z m80 -156 c0 -117 -9 -142 -45 -123 -25 14 -31 46 -28 149 2
70 6 86 22 98 17 12 21 12 35 -1 11 -12 15 -40 16 -123z"/>
<path d="M1301 4281 c-45 -16 -73 -38 -177 -142 -69 -68 -193 -191 -278 -274
-85 -82 -161 -164 -170 -182 -20 -39 -21 -122 -2 -167 9 -21 91 -103 227 -227
237 -216 805 -724 999 -893 69 -60 150 -133 180 -162 137 -131 212 -139 327
-35 21 19 108 98 193 175 85 77 187 169 225 206 39 36 128 117 199 180 71 63
159 142 195 175 37 33 183 165 326 293 143 128 271 248 285 268 37 55 41 149
7 206 -35 59 -526 537 -585 568 l-46 25 -926 2 c-880 2 -928 2 -979 -16z
m1929 -40 c25 -12 75 -53 112 -89 57 -55 65 -68 55 -81 -10 -14 -10 -14 3 -4
12 9 22 5 52 -22 20 -18 34 -36 30 -39 -3 -3 0 -6 7 -6 7 0 82 -69 166 -153
125 -125 155 -161 164 -195 25 -89 -3 -137 -165 -280 -45 -39 -84 -68 -88 -64
-4 4 -6 2 -4 -4 2 -6 -13 -26 -32 -44 -43 -40 -222 -199 -291 -257 -28 -24
-48 -43 -44 -43 4 0 -8 -12 -27 -27 -18 -16 -34 -31 -36 -35 -2 -5 -10 -8 -18
-8 -9 0 -12 -4 -9 -10 3 -5 3 -10 -2 -10 -4 0 -21 -12 -38 -28 -16 -15 -66
-59 -110 -98 -130 -115 -154 -137 -207 -187 -27 -26 -51 -47 -53 -47 -1 0 -20
-17 -42 -37 -21 -21 -59 -55 -83 -76 -25 -22 -76 -69 -115 -106 -108 -103
-137 -122 -188 -124 -58 -2 -108 33 -283 201 -25 23 -48 42 -52 42 -4 0 -21
15 -37 33 -17 17 -43 42 -59 55 -16 12 -25 22 -21 22 4 0 -10 13 -31 28 -21
16 -63 52 -93 80 -30 29 -58 53 -61 54 -7 3 -112 96 -186 164 -18 17 -30 35
-26 39 4 5 2 5 -4 2 -7 -4 -42 23 -80 60 -38 37 -62 58 -54 47 8 -10 -6 1 -32
26 -25 25 -66 63 -91 85 -24 22 -74 67 -109 100 -36 33 -89 80 -118 105 -29
25 -90 81 -136 124 -98 92 -115 127 -94 200 13 46 89 141 113 141 6 0 12 5 12
11 0 14 446 456 453 449 3 -3 11 0 18 5 6 6 31 14 55 19 24 4 447 7 939 7
l895 -1 45 -24z"/>
<path d="M1395 4133 c-11 -2 -29 -6 -40 -8 -11 -2 -73 -56 -137 -119 -64 -63
-119 -111 -123 -108 -4 4 -5 2 -3 -4 2 -6 -43 -56 -99 -110 -89 -88 -100 -103
-96 -127 3 -15 10 -30 16 -34 6 -4 7 -1 2 8 -6 11 -5 12 6 2 10 -10 80 -13
279 -13 235 1 267 3 285 18 20 16 49 65 73 122 6 14 31 68 55 120 25 52 48
106 52 120 4 14 13 35 20 46 8 12 12 30 9 41 -10 38 -43 48 -164 48 -63 1
-124 0 -135 -2z m272 -45 c-3 -7 -48 -107 -100 -223 l-94 -210 -277 -3 c-152
-1 -276 2 -276 6 0 5 99 106 220 225 l220 217 156 0 c121 0 155 -3 151 -12z"/>
<path d="M1900 4132 c-22 -7 -60 -51 -60 -68 0 -7 -5 -14 -10 -14 -5 0 -9 -4
-7 -9 1 -4 -17 -48 -40 -97 -119 -253 -128 -283 -91 -308 20 -14 85 -16 565
-16 378 0 549 3 567 11 32 15 37 47 15 95 -52 114 -88 196 -114 259 -16 39
-40 87 -54 107 -22 31 -33 37 -71 42 -59 7 -681 5 -700 -2z m784 -144 c27 -62
71 -160 98 -217 26 -57 48 -108 48 -112 0 -5 -256 -9 -570 -9 -314 0 -570 2
-570 4 0 2 17 41 39 87 82 180 130 286 145 322 l15 37 373 0 373 0 49 -112z"/>
<path d="M2876 4132 c-31 -7 -47 -29 -44 -61 1 -17 5 -31 9 -31 4 0 9 -10 13
-22 7 -29 5 -25 34 -82 13 -26 25 -53 27 -60 1 -6 10 -29 20 -51 43 -99 68
-148 92 -175 l25 -30 274 0 c262 0 275 1 294 20 17 17 19 24 9 42 -16 30 -414
420 -447 438 -19 10 -64 14 -157 15 -71 1 -139 -1 -149 -3z m507 -248 c122
-118 224 -220 225 -225 2 -5 -109 -9 -276 -9 l-279 0 -21 48 c-11 26 -52 118
-90 204 -39 86 -73 166 -77 177 -6 21 -3 21 145 21 l152 0 221 -216z"/>
<path d="M1804 3490 c-104 -5 -134 -16 -134 -49 0 -10 19 -53 41 -97 23 -43
92 -176 153 -295 61 -119 125 -243 142 -275 17 -33 29 -62 27 -66 -2 -5 1 -8
7 -8 6 0 9 -4 6 -9 -4 -5 -3 -11 2 -13 11 -4 62 -105 62 -122 0 -8 4 -16 9
-18 5 -1 23 -34 41 -73 40 -86 75 -135 99 -135 29 0 57 39 133 190 41 80 79
154 85 165 7 11 32 61 56 110 24 50 88 176 142 280 195 376 197 380 152 404
-23 12 -829 21 -1023 11z m1026 -40 c0 -6 -10 -27 -23 -48 -21 -33 -121 -228
-437 -847 -56 -110 -105 -201 -108 -202 -4 -1 -52 89 -106 200 -55 111 -164
325 -243 476 -79 150 -143 276 -143 279 0 3 -18 36 -40 74 -22 39 -40 72 -40
74 0 2 256 4 570 4 381 0 570 -3 570 -10z"/>
<path d="M1022 3474 c-12 -8 -22 -22 -22 -30 0 -18 69 -87 242 -239 75 -66
135 -125 133 -132 -2 -7 1 -10 8 -7 7 2 37 -20 69 -49 31 -28 84 -77 118 -107
35 -30 85 -75 113 -100 58 -53 98 -88 112 -98 15 -11 65 -32 65 -28 0 7 -134
133 -280 262 -124 110 -518 461 -559 499 -11 10 32 13 219 12 l231 0 89 -176
c180 -355 314 -600 318 -578 2 8 -4 30 -13 47 -9 17 -13 36 -9 42 4 7 3 8 -4
4 -7 -4 -12 -1 -12 6 0 14 -87 188 -118 238 -8 13 -58 108 -110 210 -97 190
-117 221 -142 230 -8 3 -108 6 -221 7 -170 2 -209 0 -227 -13z"/>
<path d="M3050 3474 c-14 -10 -29 -25 -35 -33 -19 -28 -95 -175 -95 -183 0 -4
-16 -32 -35 -63 -34 -53 -52 -90 -53 -109 0 -5 -4 -12 -9 -15 -15 -10 -174
-323 -168 -329 2 -3 0 -13 -6 -23 -5 -11 -6 -19 -1 -19 12 0 33 39 232 420
l175 335 223 1 c122 1 222 -1 222 -3 0 -2 -15 -16 -32 -31 -18 -15 -60 -52
-93 -82 -33 -30 -94 -84 -135 -120 -309 -270 -585 -532 -555 -528 11 2 22 5
25 8 3 3 36 32 74 65 38 33 94 84 125 114 31 29 76 70 100 90 24 19 65 56 91
81 65 62 147 136 211 190 85 71 199 188 199 203 0 36 -28 42 -234 45 -178 3
-204 1 -226 -14z"/>
<path d="M680 2953 c-38 -14 -50 -36 -50 -90 0 -96 -36 -133 -130 -133 -61 0
-90 -24 -90 -73 0 -45 29 -71 78 -69 93 4 142 -39 142 -124 0 -45 4 -56 26
-73 55 -43 114 -11 114 62 0 23 6 53 13 67 20 40 74 70 121 68 51 -1 84 15 96
48 20 51 -28 94 -103 94 -83 0 -127 49 -127 143 0 29 -6 49 -17 59 -22 19 -53
28 -73 21z m54 -61 c2 -10 8 -40 11 -69 10 -77 56 -120 141 -129 27 -4 56 -13
64 -21 13 -13 12 -16 -9 -34 -13 -10 -36 -19 -52 -19 -80 0 -149 -67 -152
-147 -1 -30 -8 -49 -19 -56 -26 -17 -46 8 -53 68 -4 30 -13 60 -21 66 -8 6
-11 16 -7 22 3 6 1 7 -5 3 -7 -4 -12 -2 -12 3 0 15 -58 38 -110 44 -37 4 -59
18 -60 38 0 16 34 32 75 34 30 1 55 11 79 29 45 34 53 50 62 115 4 29 13 59
21 66 16 17 40 10 47 -13z"/>
<path d="M3783 2945 c-36 -15 -43 -31 -43 -100 0 -81 -24 -105 -120 -115 -81
-9 -100 -23 -100 -73 0 -45 36 -70 103 -71 47 -1 60 -5 86 -30 27 -26 31 -37
31 -83 0 -45 4 -58 26 -80 20 -20 31 -24 57 -19 47 9 66 38 65 96 -2 77 35
109 136 119 54 5 62 9 79 38 17 29 17 34 3 61 -19 36 -33 42 -103 42 -47 0
-59 4 -84 29 -25 26 -29 37 -29 88 0 49 -4 63 -22 80 -33 29 -50 33 -85 18z
m59 -48 c4 -7 8 -32 8 -56 0 -32 7 -54 26 -78 41 -54 72 -70 151 -75 22 -1 35
-8 39 -21 9 -28 -14 -47 -58 -47 -100 0 -149 -55 -166 -186 -3 -18 -33 -26
-48 -13 -8 6 -14 26 -14 45 0 82 -53 142 -135 153 -31 4 -64 15 -73 24 -15 16
-15 18 0 34 10 9 34 17 55 18 66 3 111 29 133 77 11 24 20 57 20 75 0 17 2 38
5 45 7 17 47 21 57 5z"/>
<path d="M1775 2160 l-16 -30 -98 0 c-110 0 -134 -13 -134 -70 0 -50 27 -70
95 -70 32 0 58 -2 58 -4 0 -31 -15 -36 -112 -36 -92 0 -101 -2 -123 -25 -33
-32 -33 -78 0 -111 23 -23 33 -25 81 -22 33 2 53 -1 52 -7 -2 -5 -27 -56 -56
-112 l-52 -103 -94 0 c-138 0 -176 -20 -176 -91 0 -64 33 -89 115 -89 36 0 65
-2 65 -5 0 -3 -39 -82 -87 -175 l-88 -170 -118 0 c-130 0 -165 -10 -185 -55
-19 -41 -14 -80 12 -108 30 -33 58 -40 135 -35 34 1 61 2 61 1 0 -1 -15 -34
-34 -73 l-34 -70 157 0 158 0 27 70 28 70 847 0 847 0 31 -70 31 -70 156 0
156 0 -35 65 c-19 36 -35 67 -35 69 0 2 39 6 86 7 79 4 87 6 110 32 36 42 33
90 -10 133 l-34 34 -123 0 -124 0 -86 170 c-48 93 -84 172 -81 175 3 3 31 5
63 5 76 0 111 27 111 85 0 31 -6 45 -31 67 -30 27 -36 28 -134 28 l-102 0 -57
109 c-32 59 -55 110 -53 113 3 3 27 3 53 1 77 -8 122 44 96 112 -12 30 -60 45
-148 45 -75 0 -87 2 -96 20 -10 19 -8 20 49 20 52 0 62 3 80 26 27 35 26 59
-4 89 -22 23 -31 25 -122 25 l-99 0 -11 31 -12 32 -59 -51 c-87 -76 -85 -70
-57 -131 14 -29 25 -54 25 -55 0 -1 -171 -1 -379 -1 l-379 0 24 47 c13 26 24
54 24 61 0 13 -120 127 -134 127 -3 0 -12 -13 -21 -30z m82 -67 c19 -20 32
-41 29 -47 -3 -6 -10 -28 -17 -50 -12 -36 -11 -40 10 -57 22 -18 47 -19 386
-19 410 0 397 -3 392 77 -1 23 -5 39 -9 37 -4 -3 -6 5 -5 17 1 11 18 34 38 49
35 28 37 29 60 12 17 -12 46 -17 105 -18 90 -1 104 -6 104 -34 0 -23 -10 -30
-57 -36 -45 -5 -75 -30 -71 -58 5 -34 33 -46 105 -48 71 -1 133 -19 133 -38 0
-32 -22 -50 -59 -50 -23 0 -48 -8 -64 -20 -23 -18 -25 -24 -16 -48 18 -48 73
-157 81 -160 5 -2 8 -8 8 -13 0 -6 9 -20 20 -32 18 -18 33 -22 108 -24 108 -3
124 -7 140 -34 12 -19 11 -25 -6 -48 -15 -21 -29 -27 -68 -29 -27 -2 -57 -10
-66 -19 -18 -16 -25 -73 -10 -73 4 0 16 -21 26 -48 11 -26 22 -49 25 -52 3 -3
24 -43 46 -90 60 -126 57 -124 203 -130 115 -5 125 -7 143 -29 24 -30 24 -56
-1 -81 -16 -16 -33 -20 -79 -20 -33 0 -63 -5 -66 -10 -4 -6 -10 -8 -15 -5 -14
8 -24 -66 -12 -85 18 -30 -3 -45 -65 -47 -32 0 -77 1 -100 3 -38 5 -44 9 -64
52 -13 26 -34 57 -47 69 l-24 23 -837 0 c-831 0 -837 0 -859 -20 -12 -12 -33
-43 -47 -70 -14 -28 -31 -50 -38 -51 -67 -4 -194 -3 -191 3 2 3 -1 8 -7 10 -8
3 -6 14 6 37 14 28 15 38 4 57 -6 13 -16 21 -21 18 -4 -3 -8 -1 -8 4 0 5 -30
10 -67 11 -77 2 -96 15 -96 61 0 54 18 62 153 68 99 4 125 8 145 24 14 11 25
26 25 34 0 8 5 14 12 14 6 0 9 3 6 6 -4 3 25 67 62 142 70 137 72 151 38 180
-8 6 -33 12 -56 13 -23 2 -42 7 -42 13 0 5 -3 6 -7 3 -12 -12 -33 15 -33 42 0
44 16 51 120 51 91 0 98 2 127 28 43 39 126 209 113 233 -14 24 -27 31 -68 36
-47 5 -72 20 -72 43 0 32 19 39 115 41 62 2 83 9 115 36 14 13 16 21 9 43 -6
15 -15 27 -22 27 -47 3 -93 15 -106 28 -28 28 4 43 101 49 57 3 95 10 110 20
31 22 37 21 75 -21z"/>
<path d="M1801 1814 c-22 -16 -57 -80 -53 -96 1 -5 -2 -8 -8 -8 -5 0 -9 -3 -8
-7 1 -5 -5 -24 -14 -43 -25 -58 -28 -84 -12 -105 15 -20 26 -20 553 -20 502 0
539 1 555 18 17 16 17 38 1 97 -1 3 -15 35 -32 71 -54 117 -17 109 -522 109
-387 0 -439 -2 -460 -16z m907 -26 c5 -7 31 -59 55 -115 l46 -103 -545 0
c-299 0 -544 2 -544 5 0 2 21 52 46 110 l46 105 437 3 c240 1 439 3 442 5 4 1
11 -4 17 -10z"/>
<path d="M1859 1422 l-216 -2 -25 -28 c-14 -15 -38 -56 -53 -92 -16 -36 -45
-103 -65 -150 -40 -89 -40 -109 0 -130 13 -7 270 -11 770 -11 654 0 752 1 765
15 30 29 20 67 -69 257 -14 31 -26 63 -26 72 0 25 -58 67 -93 68 -129 2 -813
3 -988 1z m1097 -202 c40 -91 73 -168 73 -172 1 -5 -345 -8 -769 -8 -424 0
-770 2 -770 4 0 2 15 36 34 77 18 41 53 118 76 172 l42 97 621 -2 621 -3 72
-165z"/>
</g>
</svg>
